# xmcd CD database file
#
# Track frame offsets:
#	150
#	12459
#	27162
#	43439
#	62857
#	75779
#	87284
#	98133
#	107331
#	124451
#	139011
#	153300
#	170679
#	180039
#	198859
#	216686
#	227401
#	244642
#	265206
#	280489
#
# Disc length: 3883 seconds
#
# Revision: 0
# Processed by: cddbd v1.4PL0 Copyright (c) Steve Scherf et al.
# Submitted via: CDex 1.40Beta6
#
DISCID=0f0f2914
DTITLE=Various Artist - Cross Country
DYEAR=1996
DGENRE=Country
TTITLE0=Okie from Muskogee - Merle Haggard
TTITLE1=Rhinestone Cowboy - Glen Campbell
TTITLE2=Blanket on the ground - Billie Jo Spears
TTITLE3=Coward of the county - Kenny Rogers
TTITLE4=Crazy - Willie Nelson
TTITLE5=Don't it make my brown eyes blue - Crystal Gayle
TTITLE6=Rose Marie - Slim Whitman
TTITLE7=Rawhide - Frankie Laine
TTITLE8=Love me like you used to do - Tanya Tucker
TTITLE9=Harper valley p.t.a. - Jeannie C. Riley
TTITLE10=Give me your word - Tennessee Ernie Ford
TTITLE11=We've got tonight- Kenny Rogers&Sheena Easton
TTITLE12=Son of a preacher man - Bobbie Gentry
TTITLE13=Angel of the morning - Juice Newton
TTITLE14=Honey - Bobby Goldsboro
TTITLE15=Hello walls - Faron Young
TTITLE16=Country girl - Olivia Newton-John
TTITLE17=Mississippi - Pussycat
TTITLE18=Jambalya (on the bayou) - Nitty Gritty Dirt Band
TTITLE19=King of the road - Roger Miller
EXTD=
EXTT0=
EXTT1=
EXTT2=
EXTT3=
EXTT4=
EXTT5=
EXTT6=
EXTT7=
EXTT8=
EXTT9=
EXTT10=
EXTT11=
EXTT12=
EXTT13=
EXTT14=
EXTT15=
EXTT16=
EXTT17=
EXTT18=
EXTT19=
PLAYORDER=
